<!-- plotSvg_generative_12345.svg -->
<!-- Generated using p5.js v.1.11.11 and p5.plotSvg v.0.3.0: -->
<!-- A Plotter-Oriented SVG Exporter for p5.js -->
<!-- Mon Sep 14 2026 17:26:05 GMT+0200 (Central European Summer Time) -->
<!-- DPI: 96 -->
<svg xmlns="http://www.w3.org/2000/svg" xmlns:inkscape="http://www.inkscape.org/namespaces/inkscape" version="1.1" inkscape:version="1.4" width="6in" height="4in" viewBox="0 0 576 384">
  <style>
      circle, ellipse, line, path, polygon, polyline, rect, quad, text {
        fill: none;
        stroke: black;
        stroke-width: 1;
        stroke-linecap: round;
        stroke-linejoin: round;
        vector-effect: non-scaling-stroke;
      }
    </style>
<g id="stroke-color-group-red" inkscape:groupmode="layer" inkscape:label="1_stroke-color-group-red"><line x1="65.2252" y1="205.2575" x2="350.1638" y2="317.9611" style="stroke:red;"/><line x1="286.1058" y1="206.8528" x2="332.2829" y2="279.0760" style="stroke:red;"/><line x1="400.3436" y1="335.0966" x2="91.5460" y2="253.3192" style="stroke:red;"/><line x1="485.7128" y1="274.1522" x2="268.2165" y2="261.3288" style="stroke:red;"/><line x1="243.7932" y1="307.0616" x2="390.9773" y2="203.0076" style="stroke:red;"/><line x1="184.9836" y1="278.0225" x2="394.2367" y2="154.1009" style="stroke:red;"/><line x1="187.5848" y1="309.1245" x2="238.2277" y2="276.5774" style="stroke:red;"/><line x1="335.3688" y1="214.8858" x2="351.7090" y2="177.1658" style="stroke:red;"/><line x1="238.2034" y1="61.6522" x2="182.9785" y2="275.2066" style="stroke:red;"/><line x1="456.2249" y1="72.3776" x2="311.0025" y2="214.7834" style="stroke:red;"/><line x1="140.5254" y1="212.2016" x2="272.9298" y2="141.2388" style="stroke:red;"/><line x1="467.9720" y1="269.5785" x2="87.1161" y2="293.7413" style="stroke:red;"/><line x1="275.3881" y1="214.2208" x2="150.2119" y2="265.4112" style="stroke:red;"/><line x1="243.8524" y1="236.7761" x2="189.1182" y2="292.1155" style="stroke:red;"/><line x1="439.2839" y1="51.8132" x2="496.4733" y2="231.0806" style="stroke:red;"/><line x1="182.7562" y1="258.0309" x2="57.6596" y2="177.1567" style="stroke:red;"/><line x1="91.6684" y1="335.8421" x2="124.8022" y2="198.6187" style="stroke:red;"/><line x1="445.6487" y1="119.8335" x2="264.1087" y2="148.8100" style="stroke:red;"/><line x1="188.5413" y1="91.7071" x2="456.1303" y2="213.7272" style="stroke:red;"/></g><g id="stroke-color-group-black" inkscape:groupmode="layer" inkscape:label="2_stroke-color-group-black"><line x1="240.2996" y1="333.1649" x2="244.7425" y2="331.0891" style="stroke:black;"/><line x1="363.4332" y1="168.3135" x2="287.9653" y2="126.6540" style="stroke:black;"/><line x1="368.7869" y1="86.1093" x2="98.5049" y2="300.3451" style="stroke:black;"/><line x1="60.8581" y1="180.5314" x2="192.0052" y2="214.4208" style="stroke:black;"/><line x1="64.7265" y1="277.9408" x2="196.8758" y2="137.0528" style="stroke:black;"/><line x1="309.5782" y1="243.3829" x2="360.3294" y2="229.9135" style="stroke:black;"/><line x1="385.9898" y1="215.3635" x2="408.4633" y2="174.4092" style="stroke:black;"/><line x1="268.1630" y1="244.7966" x2="297.6813" y2="306.4938" style="stroke:black;"/><line x1="484.1362" y1="266.4196" x2="123.4275" y2="248.8871" style="stroke:black;"/><line x1="222.6709" y1="282.0517" x2="424.6784" y2="92.4977" style="stroke:black;"/><line x1="238.2078" y1="305.6647" x2="432.3844" y2="152.6126" style="stroke:black;"/><line x1="376.5879" y1="200.6866" x2="470.2562" y2="232.3407" style="stroke:black;"/><line x1="234.5029" y1="279.0134" x2="437.8942" y2="68.0300" style="stroke:black;"/><line x1="339.1544" y1="72.9003" x2="324.3184" y2="311.5294" style="stroke:black;"/><line x1="99.3074" y1="265.0721" x2="445.7390" y2="210.2548" style="stroke:black;"/><line x1="473.8813" y1="161.2785" x2="152.0878" y2="246.9469" style="stroke:black;"/><line x1="518.3659" y1="39.5358" x2="360.8688" y2="45.1364" style="stroke:black;"/><line x1="107.9642" y1="195.4206" x2="478.0110" y2="341.2559" style="stroke:black;"/><line x1="214.0935" y1="324.0859" x2="473.7372" y2="95.1964" style="stroke:black;"/><line x1="335.2447" y1="167.3388" x2="216.0820" y2="338.6602" style="stroke:black;"/><line x1="359.8607" y1="176.6033" x2="278.4934" y2="188.8757" style="stroke:black;"/><line x1="221.0155" y1="328.1773" x2="234.0218" y2="73.9098" style="stroke:black;"/><line x1="366.2838" y1="176.2296" x2="449.4909" y2="81.6177" style="stroke:black;"/><line x1="322.7328" y1="149.1993" x2="349.9587" y2="76.0489" style="stroke:black;"/><line x1="142.3952" y1="216.1809" x2="58.1639" y2="68.7659" style="stroke:black;"/><line x1="172.2675" y1="319.5885" x2="100.5575" y2="147.5640" style="stroke:black;"/><line x1="60.6715" y1="103.8048" x2="125.0531" y2="275.0255" style="stroke:black;"/><line x1="63.5841" y1="140.0185" x2="329.8514" y2="155.0526" style="stroke:black;"/><line x1="392.0928" y1="74.7707" x2="102.4190" y2="225.4631" style="stroke:black;"/><line x1="300.1555" y1="136.5809" x2="247.5914" y2="263.7352" style="stroke:black;"/><line x1="116.5814" y1="237.5190" x2="513.8496" y2="67.1439" style="stroke:black;"/><line x1="235.2468" y1="304.9071" x2="487.0880" y2="166.0712" style="stroke:black;"/><line x1="248.6734" y1="106.3084" x2="151.6573" y2="257.5870" style="stroke:black;"/><line x1="451.7485" y1="134.3175" x2="250.9587" y2="159.2932" style="stroke:black;"/><line x1="126.3345" y1="202.4665" x2="512.7264" y2="261.1343" style="stroke:black;"/><line x1="207.0095" y1="248.9412" x2="236.6813" y2="294.4096" style="stroke:black;"/><line x1="441.5851" y1="235.5365" x2="401.3872" y2="256.8603" style="stroke:black;"/><line x1="270.6942" y1="295.0551" x2="60.9637" y2="246.8696" style="stroke:black;"/><line x1="141.4633" y1="221.4826" x2="406.6596" y2="315.2662" style="stroke:black;"/><line x1="293.5926" y1="251.1900" x2="322.8540" y2="126.9747" style="stroke:black;"/><line x1="440.1831" y1="91.8641" x2="391.8498" y2="83.6926" style="stroke:black;"/><line x1="228.5862" y1="138.5691" x2="89.8242" y2="95.1157" style="stroke:black;"/><line x1="494.1633" y1="126.3480" x2="183.3428" y2="312.6364" style="stroke:black;"/><line x1="455.6909" y1="132.3933" x2="131.4325" y2="307.1277" style="stroke:black;"/><line x1="485.1174" y1="69.6763" x2="129.0441" y2="80.0987" style="stroke:black;"/><line x1="296.8672" y1="125.9346" x2="371.9581" y2="142.7389" style="stroke:black;"/><line x1="255.5033" y1="170.5930" x2="226.9586" y2="55.4114" style="stroke:black;"/><line x1="220.6239" y1="144.4292" x2="150.8224" y2="276.6254" style="stroke:black;"/><line x1="139.9916" y1="183.2471" x2="213.1685" y2="255.1679" style="stroke:black;"/><line x1="431.4047" y1="166.2742" x2="331.0829" y2="288.4113" style="stroke:black;"/><line x1="490.7535" y1="105.9354" x2="248.8666" y2="55.9895" style="stroke:black;"/><line x1="454.6589" y1="127.8340" x2="515.7660" y2="174.9713" style="stroke:black;"/><line x1="294.6654" y1="330.3356" x2="436.8751" y2="324.8442" style="stroke:black;"/><line x1="462.7126" y1="167.3701" x2="285.5452" y2="177.2694" style="stroke:black;"/><line x1="417.9439" y1="236.9371" x2="341.7786" y2="186.4400" style="stroke:black;"/><line x1="358.5253" y1="301.1579" x2="69.4016" y2="207.4801" style="stroke:black;"/><line x1="74.9478" y1="248.1703" x2="198.5776" y2="245.7666" style="stroke:black;"/><line x1="227.9685" y1="39.6937" x2="413.5280" y2="88.5243" style="stroke:black;"/><line x1="424.3169" y1="238.8953" x2="85.0689" y2="279.1389" style="stroke:black;"/><line x1="376.6435" y1="150.5035" x2="158.6518" y2="278.8740" style="stroke:black;"/><line x1="147.4891" y1="42.5062" x2="506.4581" y2="54.3750" style="stroke:black;"/><line x1="267.0070" y1="318.0564" x2="321.0864" y2="335.1594" style="stroke:black;"/><line x1="65.5854" y1="221.5477" x2="254.0579" y2="167.5831" style="stroke:black;"/><line x1="381.4383" y1="98.5087" x2="462.7517" y2="260.7405" style="stroke:black;"/><line x1="148.0982" y1="114.3770" x2="231.9557" y2="196.5111" style="stroke:black;"/><line x1="218.2743" y1="90.3354" x2="388.6797" y2="329.9550" style="stroke:black;"/><line x1="66.2876" y1="321.2211" x2="202.7202" y2="283.6012" style="stroke:black;"/><line x1="426.1547" y1="50.2474" x2="492.5010" y2="181.3315" style="stroke:black;"/><line x1="68.6947" y1="110.1917" x2="384.4673" y2="230.6406" style="stroke:black;"/><line x1="516.4777" y1="176.3803" x2="315.5743" y2="315.3736" style="stroke:black;"/><line x1="110.8362" y1="215.2665" x2="347.6430" y2="100.9942" style="stroke:black;"/><line x1="255.3793" y1="209.9570" x2="189.8270" y2="166.8441" style="stroke:black;"/><line x1="497.5374" y1="119.2813" x2="382.1181" y2="325.4508" style="stroke:black;"/><line x1="189.7660" y1="55.5425" x2="348.8834" y2="293.7056" style="stroke:black;"/><line x1="513.8301" y1="202.8702" x2="345.0760" y2="257.3561" style="stroke:black;"/><line x1="250.5338" y1="169.7045" x2="314.6834" y2="250.4541" style="stroke:black;"/><line x1="74.2025" y1="232.2153" x2="314.8747" y2="273.4824" style="stroke:black;"/><line x1="426.9715" y1="264.9804" x2="110.3302" y2="66.0771" style="stroke:black;"/><line x1="181.9476" y1="340.1541" x2="161.7513" y2="296.4150" style="stroke:black;"/><line x1="381.6669" y1="58.2030" x2="211.0213" y2="181.6182" style="stroke:black;"/><line x1="270.1067" y1="234.1264" x2="177.2433" y2="238.1128" style="stroke:black;"/></g></svg>